<svg xmlns="http://www.w3.org/2000/svg" xmlns:xlink="http://www.w3.org/1999/xlink" width="1040" height="148.55"><rect width="1040" height="148.55" rx="0" ry="0" class="a"></rect><svg height="108.55000000000001" viewBox="0 0 100 10.855" width="1000" x="20" xmlns="http://www.w3.org/2000/svg" xmlns:xlink="http://www.w3.org/1999/xlink" y="20"><style>.a{fill:rgb(40,45,53)}.b{font-family:'Fira Code',Monaco,Consolas,Menlo,'Bitstream Vera Sans Mono','Powerline Symbols',monospace}.c{fill:transparent}.d{fill:rgb(185,192,203);text-decoration:underline;white-space:pre}.e{fill:rgb(185,192,203);white-space:pre}.f{fill:rgb(219,171,121)}.g{fill:rgb(185,192,203)}.h{fill:rgb(40,45,53);white-space:pre}.i{fill:rgb(102,194,205)}</style><g font-family="&#x27;Fira Code&#x27;,Monaco,Consolas,Menlo,&#x27;Bitstream Vera Sans Mono&#x27;,&#x27;Powerline Symbols&#x27;,monospace" font-size="1.67" class="b"><defs><symbol id="a"><rect height="6" width="100" x="0" y="0" class="c"></rect></symbol></defs><rect height="10.855" width="100" class="a"></rect><svg x="0" y="0" width="100"><svg x="0"><use xlink:href="#a"></use><text x="0" y="1.67" class="d">RCBD</text><text x="0" y="3.8409999999999997" class="e">├─</text><rect height="2.171" width="7" x="2.004" y="2.171" class="f"></rect><text x="2.004" y="3.8409999999999997" class="e">&lt;block&gt;</text><rect height="2.171" width="3" x="10.02" y="2.171" class="g"></rect><text x="10.02" y="3.8409999999999997" class="h">(2)</text><text x="0" y="6.012" class="e">│</text><text x="2.004" y="6.012" class="e">└─</text><rect height="2.171" width="6" x="4.008" y="4.342" class="f"></rect><text x="4.008" y="6.012" class="e">&lt;unit&gt;</text><rect height="2.171" width="4" x="11.021999999999998" y="4.342" class="g"></rect><text x="11.021999999999998" y="6.012" class="h">(12)</text><text x="0" y="8.183" class="e">├─</text><rect height="2.171" width="6" x="2.004" y="6.513" class="f"></rect><text x="2.004" y="8.183" class="e">&lt;unit&gt;</text><rect height="2.171" width="4" x="9.017999999999999" y="6.513" class="g"></rect><text x="9.017999999999999" y="8.183" class="h">(12)</text><text x="0" y="10.354" class="e">└─</text><rect height="2.171" width="3" x="2.004" y="8.684" class="i"></rect><text x="2.004" y="10.354" class="e">trt</text><rect height="2.171" width="3" x="6.012" y="8.684" class="g"></rect><text x="6.012" y="10.354" class="h">(4)</text></svg></svg></g></svg></svg>