<svg xmlns="http://www.w3.org/2000/svg" xmlns:xlink="http://www.w3.org/1999/xlink" width="1040" height="778.1400000000001"><rect width="1040" height="778.1400000000001" rx="0" ry="0" class="a"></rect><svg height="738.1400000000001" viewBox="0 0 100 73.81400000000001" width="1000" x="20" xmlns="http://www.w3.org/2000/svg" xmlns:xlink="http://www.w3.org/1999/xlink" y="20"><style>.a{fill:rgb(40,45,53)}.b{font-family:'Fira Code',Monaco,Consolas,Menlo,'Bitstream Vera Sans Mono','Powerline Symbols',monospace}.c{fill:transparent}.d{fill:rgb(185,192,203);white-space:pre}</style><g font-family="&#x27;Fira Code&#x27;,Monaco,Consolas,Menlo,&#x27;Bitstream Vera Sans Mono&#x27;,&#x27;Powerline Symbols&#x27;,monospace" font-size="1.67" class="b"><defs><symbol id="a"><rect height="35" width="100" x="0" y="0" class="c"></rect></symbol></defs><rect height="73.81400000000001" width="100" class="a"></rect><svg x="0" y="0" width="100"><svg x="0"><use xlink:href="#a"></use><text x="0" y="3.8409999999999997" class="d">──</text><text x="3.006" y="3.8409999999999997" class="d">experimental</text><text x="16.032" y="3.8409999999999997" class="d">design</text><text x="23.045999999999996" y="3.8409999999999997" class="d">details</text><text x="31.061999999999998" y="3.8409999999999997" class="d">─────────────────────────────────────────────────</text><text x="0" y="6.012" class="d">•</text><text x="2.004" y="6.012" class="d">This</text><text x="7.013999999999999" y="6.012" class="d">experimental</text><text x="20.04" y="6.012" class="d">design</text><text x="27.054" y="6.012" class="d">is</text><text x="30.059999999999995" y="6.012" class="d">often</text><text x="36.071999999999996" y="6.012" class="d">called</text><text x="43.086" y="6.012" class="d">Split-Plot</text><text x="54.108" y="6.012" class="d">Design</text><text x="61.12199999999999" y="6.012" class="d">or</text><text x="64.128" y="6.012" class="d">Split-Unit</text><text x="0" y="8.183" class="d">Design.</text><text x="0" y="10.354" class="d">•</text><text x="2.004" y="10.354" class="d">You</text><text x="6.012" y="10.354" class="d">can</text><text x="10.02" y="10.354" class="d">change</text><text x="17.034" y="10.354" class="d">the</text><text x="21.041999999999998" y="10.354" class="d">number</text><text x="28.055999999999997" y="10.354" class="d">in</text><text x="31.061999999999998" y="10.354" class="d">`set.seed`</text><text x="42.083999999999996" y="10.354" class="d">to</text><text x="45.089999999999996" y="10.354" class="d">get</text><text x="49.098" y="10.354" class="d">another</text><text x="57.114" y="10.354" class="d">random</text><text x="64.128" y="10.354" class="d">instance</text><text x="73.146" y="10.354" class="d">of</text><text x="76.15199999999999" y="10.354" class="d">the</text><text x="0" y="12.525" class="d">same</text><text x="5.01" y="12.525" class="d">design.</text><text x="0" y="14.696" class="d">•</text><text x="2.004" y="14.696" class="d">This</text><text x="7.013999999999999" y="14.696" class="d">design</text><text x="14.027999999999999" y="14.696" class="d">is</text><text x="17.034" y="14.696" class="d">balanced.</text><text x="0" y="19.037999999999997" class="d">──</text><text x="3.006" y="19.037999999999997" class="d">edibble</text><text x="11.021999999999998" y="19.037999999999997" class="d">code</text><text x="16.032" y="19.037999999999997" class="d">────────────────────────────────────────────────────────────────</text><text x="0" y="21.209000000000003" class="d">start_design(&quot;split&quot;)</text><text x="22.043999999999997" y="21.209000000000003" class="d">%&gt;%</text><text x="2.004" y="23.380000000000003" class="d">set_units(mainplot</text><text x="21.041999999999998" y="23.380000000000003" class="d">=</text><text x="23.045999999999996" y="23.380000000000003" class="d">16,</text><text x="12.024" y="25.550999999999995" class="d">subplot</text><text x="20.04" y="25.550999999999995" class="d">=</text><text x="22.043999999999997" y="25.550999999999995" class="d">nested_in(mainplot,</text><text x="42.083999999999996" y="25.550999999999995" class="d">2))</text><text x="46.09199999999999" y="25.550999999999995" class="d">%&gt;%</text><text x="2.004" y="27.722" class="d">set_trts(trt1</text><text x="16.032" y="27.722" class="d">=</text><text x="18.035999999999998" y="27.722" class="d">4,</text><text x="11.021999999999998" y="29.893" class="d">trt2</text><text x="16.032" y="29.893" class="d">=</text><text x="18.035999999999998" y="29.893" class="d">2)</text><text x="21.041999999999998" y="29.893" class="d">%&gt;%</text><text x="2.004" y="32.064" class="d">allot_trts(trt1</text><text x="18.035999999999998" y="32.064" class="d">~</text><text x="20.04" y="32.064" class="d">mainplot,</text><text x="13.026" y="34.235" class="d">trt2</text><text x="18.035999999999998" y="34.235" class="d">~</text><text x="20.04" y="34.235" class="d">subplot)</text><text x="29.058" y="34.235" class="d">%&gt;%</text><text x="2.004" y="36.406" class="d">assign_trts(&quot;random&quot;,</text><text x="24.048" y="36.406" class="d">seed</text><text x="29.058" y="36.406" class="d">=</text><text x="31.061999999999998" y="36.406" class="d">275)</text><text x="36.071999999999996" y="36.406" class="d">%&gt;%</text><text x="2.004" y="38.577000000000005" class="d">serve_table()</text><text x="0" y="42.919" class="d">──</text><text x="3.006" y="42.919" class="d">edibble</text><text x="11.021999999999998" y="42.919" class="d">data</text><text x="16.032" y="42.919" class="d">frame</text><text x="22.043999999999997" y="42.919" class="d">──────────────────────────────────────────────────────────</text><text x="0" y="45.09" class="d">#</text><text x="2.004" y="45.09" class="d">An</text><text x="5.01" y="45.09" class="d">edibble:</text><text x="14.027999999999999" y="45.09" class="d">32</text><text x="17.034" y="45.09" class="d">x</text><text x="19.037999999999997" y="45.09" class="d">4</text><text x="5.01" y="47.261" class="d">mainplot</text><text x="17.034" y="47.261" class="d">subplot</text><text x="29.058" y="47.261" class="d">trt1</text><text x="38.07599999999999" y="47.261" class="d">trt2</text><text x="3.006" y="49.431999999999995" class="d">&lt;unit(16)&gt;</text><text x="14.027999999999999" y="49.431999999999995" class="d">&lt;unit(32)&gt;</text><text x="25.05" y="49.431999999999995" class="d">&lt;trt(4)&gt;</text><text x="34.068" y="49.431999999999995" class="d">&lt;trt(2)&gt;</text><text x="1.002" y="51.603" class="d">1</text><text x="4.008" y="51.603" class="d">mainplot1</text><text x="15.029999999999998" y="51.603" class="d">subplot1</text><text x="28.055999999999997" y="51.603" class="d">trt11</text><text x="37.074" y="51.603" class="d">trt21</text><text x="1.002" y="53.774" class="d">2</text><text x="4.008" y="53.774" class="d">mainplot1</text><text x="15.029999999999998" y="53.774" class="d">subplot2</text><text x="28.055999999999997" y="53.774" class="d">trt11</text><text x="37.074" y="53.774" class="d">trt22</text><text x="1.002" y="55.945" class="d">3</text><text x="4.008" y="55.945" class="d">mainplot2</text><text x="15.029999999999998" y="55.945" class="d">subplot3</text><text x="28.055999999999997" y="55.945" class="d">trt12</text><text x="37.074" y="55.945" class="d">trt21</text><text x="1.002" y="58.11600000000001" class="d">4</text><text x="4.008" y="58.11600000000001" class="d">mainplot2</text><text x="15.029999999999998" y="58.11600000000001" class="d">subplot4</text><text x="28.055999999999997" y="58.11600000000001" class="d">trt12</text><text x="37.074" y="58.11600000000001" class="d">trt22</text><text x="1.002" y="60.287" class="d">5</text><text x="4.008" y="60.287" class="d">mainplot3</text><text x="15.029999999999998" y="60.287" class="d">subplot5</text><text x="28.055999999999997" y="60.287" class="d">trt14</text><text x="37.074" y="60.287" class="d">trt22</text><text x="1.002" y="62.458" class="d">6</text><text x="4.008" y="62.458" class="d">mainplot3</text><text x="15.029999999999998" y="62.458" class="d">subplot6</text><text x="28.055999999999997" y="62.458" class="d">trt14</text><text x="37.074" y="62.458" class="d">trt21</text><text x="1.002" y="64.629" class="d">7</text><text x="4.008" y="64.629" class="d">mainplot4</text><text x="15.029999999999998" y="64.629" class="d">subplot7</text><text x="28.055999999999997" y="64.629" class="d">trt11</text><text x="37.074" y="64.629" class="d">trt21</text><text x="1.002" y="66.8" class="d">8</text><text x="4.008" y="66.8" class="d">mainplot4</text><text x="15.029999999999998" y="66.8" class="d">subplot8</text><text x="28.055999999999997" y="66.8" class="d">trt11</text><text x="37.074" y="66.8" class="d">trt22</text><text x="1.002" y="68.971" class="d">9</text><text x="4.008" y="68.971" class="d">mainplot5</text><text x="15.029999999999998" y="68.971" class="d">subplot9</text><text x="28.055999999999997" y="68.971" class="d">trt13</text><text x="37.074" y="68.971" class="d">trt22</text><text x="0" y="71.142" class="d">10</text><text x="4.008" y="71.142" class="d">mainplot5</text><text x="15.029999999999998" y="71.142" class="d">subplot10</text><text x="28.055999999999997" y="71.142" class="d">trt13</text><text x="37.074" y="71.142" class="d">trt21</text><text x="0" y="73.313" class="d">#</text><text x="2.004" y="73.313" class="d">…</text><text x="4.008" y="73.313" class="d">with</text><text x="9.017999999999999" y="73.313" class="d">22</text><text x="12.024" y="73.313" class="d">more</text><text x="17.034" y="73.313" class="d">rows</text></svg></svg></g></svg></svg>