<?xml version="1.0" encoding="UTF-8" standalone="no"?><svg xmlns="http://www.w3.org/2000/svg" xmlns:xlink="http://www.w3.org/1999/xlink" contentScriptType="application/ecmascript" contentStyleType="text/css" height="1335px" preserveAspectRatio="none" style="width:1337px;height:1335px;" version="1.1" viewBox="0 0 1337 1335" width="1337px" zoomAndPan="magnify"><defs><filter height="300%" id="f119qvkrpfd61s" width="300%" x="-1" y="-1"><feGaussianBlur result="blurOut" stdDeviation="2.0"/><feColorMatrix in="blurOut" result="blurOut2" type="matrix" values="0 0 0 0 0 0 0 0 0 0 0 0 0 0 0 0 0 0 .4 0"/><feOffset dx="4.0" dy="4.0" in="blurOut2" result="blurOut3"/><feBlend in="SourceGraphic" in2="blurOut3" mode="normal"/></filter></defs><g><rect fill="#FFFFFF" filter="url(#f119qvkrpfd61s)" height="782.7188" style="stroke:#A80036;stroke-width:1.0;" width="10" x="1024" y="230.9609"/><rect fill="#FFFFFF" filter="url(#f119qvkrpfd61s)" height="258.9297" style="stroke:#A80036;stroke-width:1.0;" width="10" x="1154" y="983.6797"/><rect fill="#FFFFFF" filter="url(#f119qvkrpfd61s)" height="748.8516" style="stroke:#000000;stroke-width:2.0;" width="1061.5" x="10" y="148.4297"/><rect fill="#FFFFFF" filter="url(#f119qvkrpfd61s)" height="46.2656" style="stroke:#000000;stroke-width:2.0;" width="190" x="1130" y="1145.2109"/><line style="stroke:#A80036;stroke-width:1.0;stroke-dasharray:5.0,5.0;" x1="76" x2="76" y1="88.2969" y2="1251.6094"/><line style="stroke:#A80036;stroke-width:1.0;stroke-dasharray:5.0,5.0;" x1="544" x2="544" y1="88.2969" y2="1251.6094"/><line style="stroke:#A80036;stroke-width:1.0;stroke-dasharray:5.0,5.0;" x1="1028.5" x2="1028.5" y1="88.2969" y2="1251.6094"/><line style="stroke:#A80036;stroke-width:1.0;stroke-dasharray:5.0,5.0;" x1="1159" x2="1159" y1="88.2969" y2="1251.6094"/><line style="stroke:#A80036;stroke-width:1.0;stroke-dasharray:5.0,5.0;" x1="1254.5" x2="1254.5" y1="88.2969" y2="1251.6094"/><text fill="#000000" font-family="sans-serif" font-size="14" lengthAdjust="spacing" textLength="106" x="20" y="84.9951">domain expert</text><ellipse cx="76" cy="15" fill="#FFFFFF" filter="url(#f119qvkrpfd61s)" rx="8" ry="8" style="stroke:#A80036;stroke-width:2.0;"/><path d="M76,23 L76,50 M63,31 L89,31 M76,50 L63,65 M76,50 L89,65 " fill="none" filter="url(#f119qvkrpfd61s)" style="stroke:#A80036;stroke-width:2.0;"/><text fill="#000000" font-family="sans-serif" font-size="14" lengthAdjust="spacing" textLength="106" x="20" y="1263.6045">domain expert</text><ellipse cx="76" cy="1276.9063" fill="#FFFFFF" filter="url(#f119qvkrpfd61s)" rx="8" ry="8" style="stroke:#A80036;stroke-width:2.0;"/><path d="M76,1284.9063 L76,1311.9063 M63,1292.9063 L89,1292.9063 M76,1311.9063 L63,1326.9063 M76,1311.9063 L89,1326.9063 " fill="none" filter="url(#f119qvkrpfd61s)" style="stroke:#A80036;stroke-width:2.0;"/><text fill="#000000" font-family="sans-serif" font-size="14" lengthAdjust="spacing" textLength="80" x="501" y="84.9951">statistician</text><ellipse cx="544" cy="15" fill="#AD0059" filter="url(#f119qvkrpfd61s)" rx="8" ry="8" style="stroke:#A80036;stroke-width:2.0;"/><path d="M544,23 L544,50 M531,31 L557,31 M544,50 L531,65 M544,50 L557,65 " fill="none" filter="url(#f119qvkrpfd61s)" style="stroke:#A80036;stroke-width:2.0;"/><text fill="#000000" font-family="sans-serif" font-size="14" lengthAdjust="spacing" textLength="80" x="501" y="1263.6045">statistician</text><ellipse cx="544" cy="1276.9063" fill="#AD0059" filter="url(#f119qvkrpfd61s)" rx="8" ry="8" style="stroke:#A80036;stroke-width:2.0;"/><path d="M544,1284.9063 L544,1311.9063 M531,1292.9063 L557,1292.9063 M544,1311.9063 L531,1326.9063 M544,1311.9063 L557,1326.9063 " fill="none" filter="url(#f119qvkrpfd61s)" style="stroke:#A80036;stroke-width:2.0;"/><rect fill="#FFFFFF" filter="url(#f119qvkrpfd61s)" height="30.2969" style="stroke:#A80036;stroke-width:1.5;" width="61" x="996.5" y="53"/><text fill="#000000" font-family="sans-serif" font-size="14" lengthAdjust="spacing" textLength="47" x="1003.5" y="72.9951">design</text><rect fill="#FFFFFF" filter="url(#f119qvkrpfd61s)" height="30.2969" style="stroke:#A80036;stroke-width:1.5;" width="61" x="996.5" y="1250.6094"/><text fill="#000000" font-family="sans-serif" font-size="14" lengthAdjust="spacing" textLength="47" x="1003.5" y="1270.6045">design</text><text fill="#000000" font-family="sans-serif" font-size="14" lengthAdjust="spacing" textLength="32" x="1140" y="84.9951">data</text><path d="M1141,36 C1141,26 1159,26 1159,26 C1159,26 1177,26 1177,36 L1177,62 C1177,72 1159,72 1159,72 C1159,72 1141,72 1141,62 L1141,36 " fill="#FFFFFF" filter="url(#f119qvkrpfd61s)" style="stroke:#000000;stroke-width:1.5;"/><path d="M1141,36 C1141,46 1159,46 1159,46 C1159,46 1177,46 1177,36 " fill="none" style="stroke:#000000;stroke-width:1.5;"/><text fill="#000000" font-family="sans-serif" font-size="14" lengthAdjust="spacing" textLength="32" x="1140" y="1263.6045">data</text><path d="M1141,1276.9063 C1141,1266.9063 1159,1266.9063 1159,1266.9063 C1159,1266.9063 1177,1266.9063 1177,1276.9063 L1177,1302.9063 C1177,1312.9063 1159,1312.9063 1159,1312.9063 C1159,1312.9063 1141,1312.9063 1141,1302.9063 L1141,1276.9063 " fill="#FFFFFF" filter="url(#f119qvkrpfd61s)" style="stroke:#000000;stroke-width:1.5;"/><path d="M1141,1276.9063 C1141,1286.9063 1159,1286.9063 1159,1286.9063 C1159,1286.9063 1177,1286.9063 1177,1276.9063 " fill="none" style="stroke:#000000;stroke-width:1.5;"/><text fill="#000000" font-family="sans-serif" font-size="14" lengthAdjust="spacing" textLength="75" x="1214.5" y="84.9951">technician</text><ellipse cx="1255" cy="15" fill="#FFFFFF" filter="url(#f119qvkrpfd61s)" rx="8" ry="8" style="stroke:#A80036;stroke-width:2.0;"/><path d="M1255,23 L1255,50 M1242,31 L1268,31 M1255,50 L1242,65 M1255,50 L1268,65 " fill="none" filter="url(#f119qvkrpfd61s)" style="stroke:#A80036;stroke-width:2.0;"/><text fill="#000000" font-family="sans-serif" font-size="14" lengthAdjust="spacing" textLength="75" x="1214.5" y="1263.6045">technician</text><ellipse cx="1255" cy="1276.9063" fill="#FFFFFF" filter="url(#f119qvkrpfd61s)" rx="8" ry="8" style="stroke:#A80036;stroke-width:2.0;"/><path d="M1255,1284.9063 L1255,1311.9063 M1242,1292.9063 L1268,1292.9063 M1255,1311.9063 L1242,1326.9063 M1255,1311.9063 L1268,1326.9063 " fill="none" filter="url(#f119qvkrpfd61s)" style="stroke:#A80036;stroke-width:2.0;"/><rect fill="#FFFFFF" filter="url(#f119qvkrpfd61s)" height="782.7188" style="stroke:#A80036;stroke-width:1.0;" width="10" x="1024" y="230.9609"/><rect fill="#FFFFFF" filter="url(#f119qvkrpfd61s)" height="258.9297" style="stroke:#A80036;stroke-width:1.0;" width="10" x="1154" y="983.6797"/><rect fill="#EEEEEE" filter="url(#f119qvkrpfd61s)" height="3" style="stroke:#EEEEEE;stroke-width:1.0;" width="1330" x="0" y="118.8633"/><line style="stroke:#000000;stroke-width:1.0;" x1="0" x2="1330" y1="118.8633" y2="118.8633"/><line style="stroke:#000000;stroke-width:1.0;" x1="0" x2="1330" y1="121.8633" y2="121.8633"/><rect fill="#EEEEEE" filter="url(#f119qvkrpfd61s)" height="23.1328" style="stroke:#000000;stroke-width:2.0;" width="260" x="535" y="108.2969"/><text fill="#000000" font-family="sans-serif" font-size="13" font-weight="bold" lengthAdjust="spacing" textLength="241" x="541" y="124.3638">Conceptualizing the experiment</text><path d="M10,148.4297 L153,148.4297 L153,155.4297 L143,165.4297 L10,165.4297 L10,148.4297 " fill="#EEEEEE" style="stroke:#000000;stroke-width:1.0;"/><rect fill="none" height="748.8516" style="stroke:#000000;stroke-width:2.0;" width="1061.5" x="10" y="148.4297"/><text fill="#000000" font-family="sans-serif" font-size="13" font-weight="bold" lengthAdjust="spacing" textLength="98" x="25" y="161.4966">Consultation</text><polygon fill="#A80036" points="532,182.6953,542,186.6953,532,190.6953,536,186.6953" style="stroke:#A80036;stroke-width:1.0;"/><line style="stroke:#A80036;stroke-width:1.0;" x1="76" x2="538" y1="186.6953" y2="186.6953"/><text fill="#000000" font-family="sans-serif" font-size="13" lengthAdjust="spacing" textLength="265" x="83" y="181.6294">I want to test which wheat variety is best</text><polygon fill="#A80036" points="1012,226.9609,1022,230.9609,1012,234.9609,1016,230.9609" style="stroke:#A80036;stroke-width:1.0;"/><line style="stroke:#A80036;stroke-width:1.0;" x1="544" x2="1018" y1="230.9609" y2="230.9609"/><text fill="#000000" font-family="sans-serif" font-size="13" lengthAdjust="spacing" textLength="96" x="551" y="210.7622">library(edibble)</text><text fill="#000000" font-family="sans-serif" font-size="13" lengthAdjust="spacing" textLength="194" x="551" y="225.895">start_design(name = "wheat")</text><polygon fill="#A80036" points="1012,256.0938,1022,260.0938,1012,264.0938,1016,260.0938" style="stroke:#A80036;stroke-width:1.0;"/><line style="stroke:#A80036;stroke-width:1.0;" x1="544" x2="1018" y1="260.0938" y2="260.0938"/><text fill="#000000" font-family="sans-serif" font-size="13" lengthAdjust="spacing" textLength="267" x="551" y="255.0278">set_context(aim = "identify best variety")</text><polygon fill="#A80036" points="87,285.2266,77,289.2266,87,293.2266,83,289.2266" style="stroke:#A80036;stroke-width:1.0;"/><line style="stroke:#A80036;stroke-width:1.0;" x1="81" x2="543" y1="289.2266" y2="289.2266"/><text fill="#000000" font-family="sans-serif" font-size="13" lengthAdjust="spacing" textLength="201" x="93" y="284.1606">What varieties are you testing?</text><line style="stroke:#A80036;stroke-width:1.0;" x1="542" x2="532" y1="318.3594" y2="314.3594"/><line style="stroke:#A80036;stroke-width:1.0;" x1="542" x2="532" y1="318.3594" y2="322.3594"/><line style="stroke:#A80036;stroke-width:1.0;stroke-dasharray:2.0,2.0;" x1="76" x2="543" y1="318.3594" y2="318.3594"/><text fill="#000000" font-family="sans-serif" font-size="13" lengthAdjust="spacing" textLength="193" x="83" y="313.2935">I'm testing Mace and RockStar</text><polygon fill="#A80036" points="1012,343.4922,1022,347.4922,1012,351.4922,1016,347.4922" style="stroke:#A80036;stroke-width:1.0;"/><line style="stroke:#A80036;stroke-width:1.0;" x1="544" x2="1018" y1="347.4922" y2="347.4922"/><text fill="#000000" font-family="sans-serif" font-size="13" lengthAdjust="spacing" textLength="233" x="551" y="342.4263">set_trts(var = c("Mace", "RockStar"))</text><line style="stroke:#A80036;stroke-width:1.0;" x1="542" x2="532" y1="391.7578" y2="387.7578"/><line style="stroke:#A80036;stroke-width:1.0;" x1="542" x2="532" y1="391.7578" y2="395.7578"/><line style="stroke:#A80036;stroke-width:1.0;stroke-dasharray:2.0,2.0;" x1="76" x2="543" y1="391.7578" y2="391.7578"/><text fill="#000000" font-family="sans-serif" font-size="13" lengthAdjust="spacing" textLength="303" x="83" y="371.5591">I have a field with 20 plots each at Narrabri and</text><text fill="#000000" font-family="sans-serif" font-size="13" lengthAdjust="spacing" textLength="310" x="83" y="386.6919">10 plots at Roseworthy that I can use for testing</text><polygon fill="#A80036" points="1012,462.2891,1022,466.2891,1012,470.2891,1016,466.2891" style="stroke:#A80036;stroke-width:1.0;"/><line style="stroke:#A80036;stroke-width:1.0;" x1="544" x2="1018" y1="466.2891" y2="466.2891"/><text fill="#000000" font-family="sans-serif" font-size="13" lengthAdjust="spacing" textLength="281" x="551" y="415.8247">set_units(site = c("Narrabri", "Roseworthy"),</text><text fill="#000000" font-family="sans-serif" font-size="13" lengthAdjust="spacing" textLength="204" x="551" y="430.9575">.               plot = nested_in( site,</text><text fill="#000000" font-family="sans-serif" font-size="13" lengthAdjust="spacing" textLength="99" x="695" y="446.0903">"Narrabri" ~ 20,</text><text fill="#000000" font-family="sans-serif" font-size="13" lengthAdjust="spacing" textLength="131" x="671" y="461.2231">"Roseworthy" ~ 10))</text><polygon fill="#A80036" points="87,491.4219,77,495.4219,87,499.4219,83,495.4219" style="stroke:#A80036;stroke-width:1.0;"/><line style="stroke:#A80036;stroke-width:1.0;" x1="81" x2="543" y1="495.4219" y2="495.4219"/><text fill="#000000" font-family="sans-serif" font-size="13" lengthAdjust="spacing" textLength="208" x="93" y="490.356">What do you consider as "best"?</text><polygon fill="#A80036" points="532,535.6875,542,539.6875,532,543.6875,536,539.6875" style="stroke:#A80036;stroke-width:1.0;"/><line style="stroke:#A80036;stroke-width:1.0;" x1="76" x2="538" y1="539.6875" y2="539.6875"/><text fill="#000000" font-family="sans-serif" font-size="13" lengthAdjust="spacing" textLength="307" x="83" y="519.4888">For now, I just want to select one that'll give me</text><text fill="#000000" font-family="sans-serif" font-size="13" lengthAdjust="spacing" textLength="110" x="83" y="534.6216">the highest yield.</text><polygon fill="#A80036" points="1012,564.8203,1022,568.8203,1012,572.8203,1016,568.8203" style="stroke:#A80036;stroke-width:1.0;"/><line style="stroke:#A80036;stroke-width:1.0;" x1="544" x2="1018" y1="568.8203" y2="568.8203"/><text fill="#000000" font-family="sans-serif" font-size="13" lengthAdjust="spacing" textLength="141" x="551" y="563.7544">set_rcrds(yield = plot)</text><polygon fill="#A80036" points="87,593.9531,77,597.9531,87,601.9531,83,597.9531" style="stroke:#A80036;stroke-width:1.0;"/><line style="stroke:#A80036;stroke-width:1.0;" x1="81" x2="543" y1="597.9531" y2="597.9531"/><text fill="#000000" font-family="sans-serif" font-size="13" lengthAdjust="spacing" textLength="332" x="93" y="592.8872">What's range of values do you expect for the yield?</text><line style="stroke:#A80036;stroke-width:1.0;" x1="542" x2="532" y1="627.0859" y2="623.0859"/><line style="stroke:#A80036;stroke-width:1.0;" x1="542" x2="532" y1="627.0859" y2="631.0859"/><line style="stroke:#A80036;stroke-width:1.0;stroke-dasharray:2.0,2.0;" x1="76" x2="543" y1="627.0859" y2="627.0859"/><text fill="#000000" font-family="sans-serif" font-size="13" lengthAdjust="spacing" textLength="369" x="83" y="622.02">Well it never goes over 10 tonnes per hectre in my fields!</text><polygon fill="#A80036" points="1012,652.2188,1022,656.2188,1012,660.2188,1016,656.2188" style="stroke:#A80036;stroke-width:1.0;"/><line style="stroke:#A80036;stroke-width:1.0;" x1="544" x2="1018" y1="656.2188" y2="656.2188"/><text fill="#000000" font-family="sans-serif" font-size="13" lengthAdjust="spacing" textLength="456" x="551" y="651.1528">expect_rcrds(yield = to_be_numeric( with_value( between = c(0, 10))))</text><polygon fill="#A80036" points="87,681.3516,77,685.3516,87,689.3516,83,685.3516" style="stroke:#A80036;stroke-width:1.0;"/><line style="stroke:#A80036;stroke-width:1.0;" x1="81" x2="543" y1="685.3516" y2="685.3516"/><text fill="#000000" font-family="sans-serif" font-size="13" lengthAdjust="spacing" textLength="444" x="93" y="680.2856">Do you have any restrictions in allocation of varieties at site or plots?</text><line style="stroke:#A80036;stroke-width:1.0;" x1="542" x2="532" y1="714.4844" y2="710.4844"/><line style="stroke:#A80036;stroke-width:1.0;" x1="542" x2="532" y1="714.4844" y2="718.4844"/><line style="stroke:#A80036;stroke-width:1.0;stroke-dasharray:2.0,2.0;" x1="76" x2="543" y1="714.4844" y2="714.4844"/><text fill="#000000" font-family="sans-serif" font-size="13" lengthAdjust="spacing" textLength="21" x="83" y="709.4185">No.</text><polygon fill="#A80036" points="1012,739.6172,1022,743.6172,1012,747.6172,1016,743.6172" style="stroke:#A80036;stroke-width:1.0;"/><line style="stroke:#A80036;stroke-width:1.0;" x1="544" x2="1018" y1="743.6172" y2="743.6172"/><text fill="#000000" font-family="sans-serif" font-size="13" lengthAdjust="spacing" textLength="152" x="551" y="738.5513">allocate_trts(var ~ plot)</text><polygon fill="#A80036" points="1012,768.75,1022,772.75,1012,776.75,1016,772.75" style="stroke:#A80036;stroke-width:1.0;"/><line style="stroke:#A80036;stroke-width:1.0;" x1="544" x2="1018" y1="772.75" y2="772.75"/><text fill="#000000" font-family="sans-serif" font-size="13" lengthAdjust="spacing" textLength="34" x="551" y="767.6841">plot()</text><line style="stroke:#A80036;stroke-width:1.0;" x1="544" x2="554" y1="786.75" y2="782.75"/><line style="stroke:#A80036;stroke-width:1.0;" x1="544" x2="554" y1="786.75" y2="790.75"/><line style="stroke:#A80036;stroke-width:1.0;stroke-dasharray:2.0,2.0;" x1="544" x2="1023" y1="786.75" y2="786.75"/><polygon fill="#A80036" points="87,827.0156,77,831.0156,87,835.0156,83,831.0156" style="stroke:#A80036;stroke-width:1.0;"/><line style="stroke:#A80036;stroke-width:1.0;" x1="81" x2="543" y1="831.0156" y2="831.0156"/><text fill="#000000" font-family="sans-serif" font-size="13" lengthAdjust="spacing" textLength="351" x="93" y="810.8169">Well, this is my current understanding of the structure.</text><text fill="#000000" font-family="sans-serif" font-size="13" lengthAdjust="spacing" textLength="196" x="93" y="825.9497">Have I understood it correctly?</text><line style="stroke:#A80036;stroke-width:1.0;" x1="542" x2="532" y1="860.1484" y2="856.1484"/><line style="stroke:#A80036;stroke-width:1.0;" x1="542" x2="532" y1="860.1484" y2="864.1484"/><line style="stroke:#A80036;stroke-width:1.0;stroke-dasharray:2.0,2.0;" x1="76" x2="543" y1="860.1484" y2="860.1484"/><text fill="#000000" font-family="sans-serif" font-size="13" lengthAdjust="spacing" textLength="103" x="83" y="855.0825">That looks right.</text><line style="stroke:#A80036;stroke-width:1.0;" x1="76" x2="86" y1="889.2813" y2="885.2813"/><line style="stroke:#A80036;stroke-width:1.0;" x1="76" x2="86" y1="889.2813" y2="893.2813"/><line style="stroke:#A80036;stroke-width:1.0;stroke-dasharray:2.0,2.0;" x1="76" x2="543" y1="889.2813" y2="889.2813"/><text fill="#000000" font-family="sans-serif" font-size="13" lengthAdjust="spacing" textLength="261" x="93" y="884.2153">Okay I'll send the design when it's ready.</text><polygon fill="#A80036" points="1012,921.4141,1022,925.4141,1012,929.4141,1016,925.4141" style="stroke:#A80036;stroke-width:1.0;"/><line style="stroke:#A80036;stroke-width:1.0;" x1="544" x2="1018" y1="925.4141" y2="925.4141"/><text fill="#000000" font-family="sans-serif" font-size="13" font-weight="bold" lengthAdjust="spacing" textLength="129" x="551" y="920.3481">randomise_trts()</text><polygon fill="#A80036" points="1012,950.5469,1022,954.5469,1012,958.5469,1016,954.5469" style="stroke:#A80036;stroke-width:1.0;"/><line style="stroke:#A80036;stroke-width:1.0;" x1="544" x2="1018" y1="954.5469" y2="954.5469"/><text fill="#000000" font-family="sans-serif" font-size="13" lengthAdjust="spacing" textLength="85" x="551" y="949.481">serve_table()</text><polygon fill="#A80036" points="1142,979.6797,1152,983.6797,1142,987.6797,1146,983.6797" style="stroke:#A80036;stroke-width:1.0;"/><line style="stroke:#A80036;stroke-width:1.0;" x1="1034" x2="1148" y1="983.6797" y2="983.6797"/><text fill="#000000" font-family="sans-serif" font-size="13" lengthAdjust="spacing" textLength="101" x="1041" y="978.6138">export_design()</text><polygon fill="#A80036" points="1017,1038.8125,1027,1042.8125,1017,1046.8125,1021,1042.8125" style="stroke:#A80036;stroke-width:1.0;"/><line style="stroke:#A80036;stroke-width:1.0;" x1="544" x2="1023" y1="1042.8125" y2="1042.8125"/><text fill="#000000" font-family="sans-serif" font-size="13" lengthAdjust="spacing" textLength="76" x="551" y="1037.7466">end session</text><line style="stroke:#A80036;stroke-width:2.0;" x1="1020" x2="1038" y1="1033.8125" y2="1051.8125"/><line style="stroke:#A80036;stroke-width:2.0;" x1="1020" x2="1038" y1="1051.8125" y2="1033.8125"/><polygon fill="#A80036" points="1142,1067.9453,1152,1071.9453,1142,1075.9453,1146,1071.9453" style="stroke:#A80036;stroke-width:1.0;"/><line style="stroke:#A80036;stroke-width:1.0;" x1="76" x2="1148" y1="1071.9453" y2="1071.9453"/><text fill="#000000" font-family="sans-serif" font-size="13" lengthAdjust="spacing" textLength="46" x="83" y="1066.8794">inspect</text><polygon fill="#A80036" points="1175,1097.0781,1165,1101.0781,1175,1105.0781,1171,1101.0781" style="stroke:#A80036;stroke-width:1.0;"/><line style="stroke:#A80036;stroke-width:1.0;" x1="1169" x2="1254" y1="1101.0781" y2="1101.0781"/><text fill="#000000" font-family="sans-serif" font-size="13" lengthAdjust="spacing" textLength="43" x="1181" y="1096.0122">inquire</text><polygon fill="#A80036" points="1175,1126.2109,1165,1130.2109,1175,1134.2109,1171,1130.2109" style="stroke:#A80036;stroke-width:1.0;"/><line style="stroke:#A80036;stroke-width:1.0;" x1="1169" x2="1254" y1="1130.2109" y2="1130.2109"/><text fill="#000000" font-family="sans-serif" font-size="13" lengthAdjust="spacing" textLength="67" x="1181" y="1125.145">data entry</text><path d="M1130,1145.2109 L1207,1145.2109 L1207,1152.2109 L1197,1162.2109 L1130,1162.2109 L1130,1145.2109 " fill="#EEEEEE" style="stroke:#000000;stroke-width:1.0;"/><rect fill="none" height="46.2656" style="stroke:#000000;stroke-width:2.0;" width="190" x="1130" y="1145.2109"/><text fill="#000000" font-family="sans-serif" font-size="13" font-weight="bold" lengthAdjust="spacing" textLength="27" x="1145" y="1158.2778">opt</text><text fill="#000000" font-family="sans-serif" font-size="11" font-weight="bold" lengthAdjust="spacing" textLength="93" x="1222" y="1157.4214">[invalid entry]</text><line style="stroke:#A80036;stroke-width:1.0;" x1="1253" x2="1243" y1="1183.4766" y2="1179.4766"/><line style="stroke:#A80036;stroke-width:1.0;" x1="1253" x2="1243" y1="1183.4766" y2="1187.4766"/><line style="stroke:#A80036;stroke-width:1.0;stroke-dasharray:2.0,2.0;" x1="1164" x2="1254" y1="1183.4766" y2="1183.4766"/><text fill="#000000" font-family="sans-serif" font-size="13" lengthAdjust="spacing" textLength="31" x="1171" y="1178.4106">error</text><rect fill="#EEEEEE" filter="url(#f119qvkrpfd61s)" height="3" style="stroke:#EEEEEE;stroke-width:1.0;" width="1330" x="0" y="1219.043"/><line style="stroke:#000000;stroke-width:1.0;" x1="0" x2="1330" y1="1219.043" y2="1219.043"/><line style="stroke:#000000;stroke-width:1.0;" x1="0" x2="1330" y1="1222.043" y2="1222.043"/><rect fill="#EEEEEE" filter="url(#f119qvkrpfd61s)" height="23.1328" style="stroke:#000000;stroke-width:2.0;" width="200" x="565" y="1208.4766"/><text fill="#000000" font-family="sans-serif" font-size="13" font-weight="bold" lengthAdjust="spacing" textLength="186" x="571" y="1224.5435">Import data and analyse</text><!--MD5=[4e2f8a09f6b244e24607503fac5167cc]
@startuml
actor "domain expert" as expert #fff
actor statistician as stat #AD0059
participant design as design #fff
database data as data #fff
actor technician as tech #fff
== Conceptualizing the experiment ==
group Consultation
expert -> stat: I want to test which wheat variety is best
stat -> design: library(edibble)\nstart_design(name = "wheat")
activate design
stat -> design: set_context(aim = "identify best variety")
stat -> expert: What varieties are you testing?
expert - ->> stat: I'm testing Mace and RockStar
stat -> design: set_trts(var = c("Mace", "RockStar"))
expert - ->> stat: I have a field with 20 plots each at Narrabri and\n10 plots at Roseworthy that I can use for testing
stat -> design: set_units(site = c("Narrabri", "Roseworthy"),\n.               plot = nested_in( site,\n                                    "Narrabri" ~ 20,\n                              "Roseworthy" ~ 10))
stat -> expert: What do you consider as "best"?
expert -> stat: For now, I just want to select one that'll give me\nthe highest yield.
stat -> design: set_rcrds(yield = plot)
stat -> expert: What's range of values do you expect for the yield?
expert - ->> stat: Well it never goes over 10 tonnes per hectre in my fields!
stat -> design: expect_rcrds(yield = to_be_numeric( with_value( between = c(0, 10))))
stat -> expert: Do you have any restrictions in allocation of varieties at site or plots?
expert - ->> stat: No.
stat -> design: allocate_trts(var ~ plot)
stat -> design: plot()
design - ->> stat
stat -> expert: Well, this is my current understanding of the structure.\nHave I understood it correctly?
expert - ->> stat: That looks right.
stat - ->> expert: Okay I'll send the design when it's ready.
end 
stat -> design: **randomise_trts()**
stat -> design: serve_table()
design -> data: export_design()
activate data
deactivate design
stat -> design !!: end session
expert -> data: inspect
tech -> data: inquire
tech -> data: data entry
group opt [invalid entry]
data - ->> tech: error
end
== Import data and analyse==
@enduml

PlantUML version 1.2021.01beta7(Unknown compile time)
(GPL source distribution)
Java Runtime: Java(TM) SE Runtime Environment
JVM: Java HotSpot(TM) 64-Bit Server VM
Default Encoding: UTF-8
Language: en
Country: US
--></g></svg>