<svg xmlns="http://www.w3.org/2000/svg" xmlns:xlink="http://www.w3.org/1999/xlink" width="1040" height="278.80999999999995"><rect width="1040" height="278.80999999999995" rx="0" ry="0" class="a"></rect><svg height="238.80999999999997" viewBox="0 0 100 23.880999999999997" width="1000" x="20" xmlns="http://www.w3.org/2000/svg" xmlns:xlink="http://www.w3.org/1999/xlink" y="20"><style>.a{fill:rgb(40,45,53)}.b{font-family:'Fira Code',Monaco,Consolas,Menlo,'Bitstream Vera Sans Mono','Powerline Symbols',monospace}.c{fill:transparent}.d{fill:rgb(185,192,203);white-space:pre}.e{fill:rgb(185,192,203);font-style:italic;white-space:pre}.f{fill:rgb(102,194,205);font-style:italic;white-space:pre}.g{fill:rgb(219,171,121);white-space:pre}.h{fill:rgb(111,119,131);white-space:pre}.i{fill:rgb(113,190,242);white-space:pre}</style><g font-family="&#x27;Fira Code&#x27;,Monaco,Consolas,Menlo,&#x27;Bitstream Vera Sans Mono&#x27;,&#x27;Powerline Symbols&#x27;,monospace" font-size="1.67" class="b"><defs><symbol id="a"><rect height="12" width="100" x="0" y="0" class="c"></rect></symbol></defs><rect height="23.880999999999997" width="100" class="a"></rect><svg x="0" y="0" width="100"><svg x="0"><use xlink:href="#a"></use><text x="0" y="1.67" class="d">──</text><text x="3.006" y="1.67" class="e">Context</text><text x="11.021999999999998" y="1.67" class="e">of</text><text x="14.027999999999999" y="1.67" class="e">the</text><text x="18.035999999999998" y="1.67" class="e">experiment</text><text x="29.058" y="1.67" class="d">───────────────────────────────────────────────────</text><text x="0" y="6.012" class="d">●</text><text x="2.004" y="6.012" class="e">question</text><text x="10.02" y="6.012" class="d">:</text><text x="12.024" y="6.012" class="d">Is</text><text x="15.029999999999998" y="6.012" class="d">the</text><text x="19.037999999999997" y="6.012" class="d">vaccine</text><text x="27.054" y="6.012" class="d">effective?</text><text x="0" y="8.183" class="d">●</text><text x="2.004" y="8.183" class="e">where</text><text x="7.013999999999999" y="8.183" class="d">:</text><text x="9.017999999999999" y="8.183" class="d">Tested</text><text x="16.032" y="8.183" class="d">in</text><text x="19.037999999999997" y="8.183" class="d">the</text><text x="23.045999999999996" y="8.183" class="d">lab</text><text x="0" y="10.354" class="d">●</text><text x="2.004" y="10.354" class="d">experiment</text><text x="13.026" y="10.354" class="d">is</text><text x="16.032" y="10.354" class="d">blinded</text><text x="0" y="12.525" class="d">●</text><text x="2.004" y="12.525" class="d">experiment</text><text x="13.026" y="12.525" class="d">is</text><text x="16.032" y="12.525" class="d">carried</text><text x="24.048" y="12.525" class="d">out</text><text x="28.055999999999997" y="12.525" class="d">by</text><text x="31.061999999999998" y="12.525" class="d">one</text><text x="35.06999999999999" y="12.525" class="d">technician</text><text x="0" y="16.866999999999997" class="d">────────────────────────────────────────────────────────────────────────────────</text><text x="0" y="19.037999999999997" class="f">COVID-19</text><text x="0" y="21.209000000000003" class="d">├─</text>0<text x="2.004" y="21.209000000000003" class="g">rat</text><text x="6.012" y="21.209000000000003" class="h">(20</text><text x="10.02" y="21.209000000000003" class="h">levels)</text><text x="0" y="23.380000000000003" class="d">└─</text><text x="2.004" y="23.380000000000003" class="i">treat</text><text x="8.016" y="23.380000000000003" class="h">(2</text><text x="11.021999999999998" y="23.380000000000003" class="h">levels)</text></svg></svg></g></svg></svg>