<svg xmlns="http://www.w3.org/2000/svg" xmlns:xlink="http://www.w3.org/1999/xlink" width="1040" height="821.5600000000001"><rect width="1040" height="821.5600000000001" rx="0" ry="0" class="a"></rect><svg height="781.5600000000001" viewBox="0 0 100 78.156" width="1000" x="20" xmlns="http://www.w3.org/2000/svg" xmlns:xlink="http://www.w3.org/1999/xlink" y="20"><style>.a{fill:rgb(40,45,53)}.b{font-family:'Fira Code',Monaco,Consolas,Menlo,'Bitstream Vera Sans Mono','Powerline Symbols',monospace}.c{fill:transparent}.d{fill:rgb(102,194,205);white-space:pre}.e{fill:rgb(185,192,203);font-weight:bold;white-space:pre}.f{fill:rgb(185,192,203);white-space:pre}.g{fill:rgb(185,192,203);font-style:italic;white-space:pre}.h{fill:rgb(111,119,131);white-space:pre}.i{fill:rgb(219,171,121);white-space:pre}.j{fill:rgb(113,190,242);white-space:pre}.k{fill:rgb(111,119,131);font-style:italic;white-space:pre}</style><g font-family="&#x27;Fira Code&#x27;,Monaco,Consolas,Menlo,&#x27;Bitstream Vera Sans Mono&#x27;,&#x27;Powerline Symbols&#x27;,monospace" font-size="1.67" class="b"><defs><symbol id="a"><rect height="37" width="100" x="0" y="0" class="c"></rect></symbol></defs><rect height="78.156" width="100" class="a"></rect><svg x="0" y="0" width="100"><svg x="0"><use xlink:href="#a"></use><text x="0" y="3.8409999999999997" class="d">──</text><text x="3.006" y="3.8409999999999997" class="e">experimental</text><text x="16.032" y="3.8409999999999997" class="e">design</text><text x="23.045999999999996" y="3.8409999999999997" class="e">details</text><text x="31.061999999999998" y="3.8409999999999997" class="d">─────────────────────────────────────────────────</text><text x="0" y="6.012" class="f">●</text><text x="2.004" y="6.012" class="f">This</text><text x="7.013999999999999" y="6.012" class="f">experimental</text><text x="20.04" y="6.012" class="f">design</text><text x="27.054" y="6.012" class="f">is</text><text x="30.059999999999995" y="6.012" class="f">often</text><text x="36.071999999999996" y="6.012" class="f">called</text><text x="43.086" y="6.012" class="g">Split-Plot</text><text x="54.108" y="6.012" class="g">Design</text><text x="61.12199999999999" y="6.012" class="f">or</text><text x="64.128" y="6.012" class="g">Split-Unit</text><text x="2.004" y="8.183" class="g">Design</text><text x="8.016" y="8.183" class="f">.</text><text x="0" y="10.354" class="f">●</text><text x="2.004" y="10.354" class="f">You</text><text x="6.012" y="10.354" class="f">can</text><text x="10.02" y="10.354" class="f">change</text><text x="17.034" y="10.354" class="f">the</text><text x="21.041999999999998" y="10.354" class="f">number</text><text x="28.055999999999997" y="10.354" class="f">in</text>0<text x="31.061999999999998" y="10.354" class="h">`set.seed`</text><text x="42.083999999999996" y="10.354" class="f">to</text><text x="45.089999999999996" y="10.354" class="f">get</text><text x="49.098" y="10.354" class="f">another</text><text x="57.114" y="10.354" class="f">random</text><text x="64.128" y="10.354" class="f">instance</text><text x="73.146" y="10.354" class="f">of</text><text x="2.004" y="12.525" class="f">the</text><text x="6.012" y="12.525" class="f">same</text><text x="11.021999999999998" y="12.525" class="f">design.</text><text x="0" y="14.696" class="f">●</text><text x="2.004" y="14.696" class="f">This</text><text x="7.013999999999999" y="14.696" class="f">design</text><text x="14.027999999999999" y="14.696" class="f">has</text><text x="18.035999999999998" y="14.696" class="f">a</text><text x="20.04" y="14.696" class="f">total</text><text x="26.052" y="14.696" class="f">of</text>0<text x="29.058" y="14.696" class="i">32 units</text><text x="38.07599999999999" y="14.696" class="f">testing</text><text x="46.09199999999999" y="14.696" class="f">a</text><text x="48.096" y="14.696" class="f">total</text><text x="54.108" y="14.696" class="f">of</text><text x="57.114" y="14.696" class="j">8</text><text x="59.117999999999995" y="14.696" class="j">treatments</text><text x="69.13799999999999" y="14.696" class="f">.</text><text x="0" y="16.866999999999997" class="f">●</text><text x="2.004" y="16.866999999999997" class="f">This</text><text x="7.013999999999999" y="16.866999999999997" class="f">design</text><text x="14.027999999999999" y="16.866999999999997" class="f">is</text><text x="17.034" y="16.866999999999997" class="g">balanced.</text><text x="0" y="21.209000000000003" class="d">──</text><text x="3.006" y="21.209000000000003" class="e">edibble</text><text x="11.021999999999998" y="21.209000000000003" class="e">code</text><text x="16.032" y="21.209000000000003" class="d">────────────────────────────────────────────────────────────────</text><text x="0" y="23.380000000000003" class="f">set.seed(968)</text><text x="0" y="25.550999999999995" class="f">start_design(&quot;split&quot;)</text><text x="22.043999999999997" y="25.550999999999995" class="f">%&gt;%</text><text x="2.004" y="27.722" class="f">set_units(</text>0<text x="12.024" y="27.722" class="i">mainplot</text><text x="21.041999999999998" y="27.722" class="f">=</text><text x="23.045999999999996" y="27.722" class="f">16,</text>0<text x="12.024" y="29.893" class="i">subplot</text><text x="20.04" y="29.893" class="f">=</text><text x="22.043999999999997" y="29.893" class="f">nested_in(</text>0<text x="32.064" y="29.893" class="i">mainplot</text><text x="40.08" y="29.893" class="f">,</text><text x="42.083999999999996" y="29.893" class="f">2))</text><text x="46.09199999999999" y="29.893" class="f">%&gt;%</text><text x="2.004" y="32.064" class="f">set_trts(</text><text x="11.021999999999998" y="32.064" class="j">treat1</text><text x="18.035999999999998" y="32.064" class="f">=</text><text x="20.04" y="32.064" class="f">4,</text><text x="11.021999999999998" y="34.235" class="j">treat2</text><text x="18.035999999999998" y="34.235" class="f">=</text><text x="20.04" y="34.235" class="f">2)</text><text x="23.045999999999996" y="34.235" class="f">%&gt;%</text><text x="2.004" y="36.406" class="f">allocate_trts(</text><text x="16.032" y="36.406" class="j">treat1</text><text x="23.045999999999996" y="36.406" class="f">~</text>0<text x="25.05" y="36.406" class="i">mainplot</text><text x="33.065999999999995" y="36.406" class="f">,</text><text x="16.032" y="38.577000000000005" class="j">treat2</text><text x="23.045999999999996" y="38.577000000000005" class="f">~</text>0<text x="25.05" y="38.577000000000005" class="i">subplot</text><text x="32.064" y="38.577000000000005" class="f">)</text><text x="34.068" y="38.577000000000005" class="f">%&gt;%</text><text x="2.004" y="40.748000000000005" class="f">randomise_trts()</text><text x="19.037999999999997" y="40.748000000000005" class="f">%&gt;%</text><text x="2.004" y="42.919" class="f">serve_table()</text><text x="0" y="47.261" class="d">──</text><text x="3.006" y="47.261" class="e">edibble</text><text x="11.021999999999998" y="47.261" class="e">data</text><text x="16.032" y="47.261" class="e">frame</text><text x="22.043999999999997" y="47.261" class="d">──────────────────────────────────────────────────────────</text><text x="0" y="49.431999999999995" class="h">#</text><text x="2.004" y="49.431999999999995" class="h">An</text><text x="5.01" y="49.431999999999995" class="h">edibble:</text><text x="14.027999999999999" y="49.431999999999995" class="h">32</text><text x="17.034" y="49.431999999999995" class="h">x</text><text x="19.037999999999997" y="49.431999999999995" class="h">4</text><text x="3.006" y="51.603" class="f">mainplot</text><text x="14.027999999999999" y="51.603" class="f">subplot</text><text x="25.05" y="51.603" class="f">treat1</text><text x="34.068" y="51.603" class="f">treat2</text><text x="3.006" y="53.774" class="k">&lt;unit(16)&gt;</text><text x="14.027999999999999" y="53.774" class="k">&lt;unit(32)&gt;</text><text x="25.05" y="53.774" class="k">&lt;trt(4)&gt;</text><text x="34.068" y="53.774" class="k">&lt;trt(2)&gt;</text><text x="1.002" y="55.945" class="h">1</text><text x="3.006" y="55.945" class="f">mainplot1</text><text x="14.027999999999999" y="55.945" class="f">subplot1</text><text x="25.05" y="55.945" class="f">treat14</text><text x="34.068" y="55.945" class="f">treat22</text><text x="1.002" y="58.11600000000001" class="h">2</text><text x="3.006" y="58.11600000000001" class="f">mainplot1</text><text x="14.027999999999999" y="58.11600000000001" class="f">subplot2</text><text x="25.05" y="58.11600000000001" class="f">treat14</text><text x="34.068" y="58.11600000000001" class="f">treat22</text><text x="1.002" y="60.287" class="h">3</text><text x="3.006" y="60.287" class="f">mainplot2</text><text x="14.027999999999999" y="60.287" class="f">subplot3</text><text x="25.05" y="60.287" class="f">treat12</text><text x="34.068" y="60.287" class="f">treat22</text><text x="1.002" y="62.458" class="h">4</text><text x="3.006" y="62.458" class="f">mainplot2</text><text x="14.027999999999999" y="62.458" class="f">subplot4</text><text x="25.05" y="62.458" class="f">treat12</text><text x="34.068" y="62.458" class="f">treat21</text><text x="1.002" y="64.629" class="h">5</text><text x="3.006" y="64.629" class="f">mainplot3</text><text x="14.027999999999999" y="64.629" class="f">subplot5</text><text x="25.05" y="64.629" class="f">treat11</text><text x="34.068" y="64.629" class="f">treat21</text><text x="1.002" y="66.8" class="h">6</text><text x="3.006" y="66.8" class="f">mainplot3</text><text x="14.027999999999999" y="66.8" class="f">subplot6</text><text x="25.05" y="66.8" class="f">treat11</text><text x="34.068" y="66.8" class="f">treat21</text><text x="1.002" y="68.971" class="h">7</text><text x="3.006" y="68.971" class="f">mainplot4</text><text x="14.027999999999999" y="68.971" class="f">subplot7</text><text x="25.05" y="68.971" class="f">treat11</text><text x="34.068" y="68.971" class="f">treat22</text><text x="1.002" y="71.142" class="h">8</text><text x="3.006" y="71.142" class="f">mainplot4</text><text x="14.027999999999999" y="71.142" class="f">subplot8</text><text x="25.05" y="71.142" class="f">treat11</text><text x="34.068" y="71.142" class="f">treat21</text><text x="1.002" y="73.313" class="h">9</text><text x="3.006" y="73.313" class="f">mainplot5</text><text x="14.027999999999999" y="73.313" class="f">subplot9</text><text x="25.05" y="73.313" class="f">treat14</text><text x="34.068" y="73.313" class="f">treat22</text><text x="0" y="75.48400000000001" class="h">10</text><text x="3.006" y="75.48400000000001" class="f">mainplot5</text><text x="14.027999999999999" y="75.48400000000001" class="f">subplot10</text><text x="25.05" y="75.48400000000001" class="f">treat14</text><text x="34.068" y="75.48400000000001" class="f">treat22</text><text x="0" y="77.655" class="h">#</text><text x="2.004" y="77.655" class="h">…</text><text x="4.008" y="77.655" class="h">with</text><text x="9.017999999999999" y="77.655" class="h">22</text><text x="12.024" y="77.655" class="h">more</text><text x="17.034" y="77.655" class="h">rows</text></svg></svg></g></svg></svg>