<svg xmlns="http://www.w3.org/2000/svg" xmlns:xlink="http://www.w3.org/1999/xlink" width="1040" height="365.65"><rect width="1040" height="365.65" rx="0" ry="0" class="a"></rect><svg height="325.65" viewBox="0 0 100 32.565" width="1000" x="20" xmlns="http://www.w3.org/2000/svg" xmlns:xlink="http://www.w3.org/1999/xlink" y="20"><style>.a{fill:rgb(40,45,53)}.b{font-family:'Fira Code',Monaco,Consolas,Menlo,'Bitstream Vera Sans Mono','Powerline Symbols',monospace}.c{fill:transparent}.d{fill:rgb(185,192,203);white-space:pre}</style><g font-family="&#x27;Fira Code&#x27;,Monaco,Consolas,Menlo,&#x27;Bitstream Vera Sans Mono&#x27;,&#x27;Powerline Symbols&#x27;,monospace" font-size="1.67" class="b"><defs><symbol id="a"><rect height="16" width="100" x="0" y="0" class="c"></rect></symbol></defs><rect height="32.565" width="100" class="a"></rect><svg x="0" y="0" width="100"><svg x="0"><use xlink:href="#a"></use><text x="0" y="1.67" class="d">#</text><text x="2.004" y="1.67" class="d">An</text><text x="5.01" y="1.67" class="d">edibble:</text><text x="14.027999999999999" y="1.67" class="d">12</text><text x="17.034" y="1.67" class="d">x</text><text x="19.037999999999997" y="1.67" class="d">3</text><text x="7.013999999999999" y="3.8409999999999997" class="d">block</text><text x="19.037999999999997" y="3.8409999999999997" class="d">unit</text><text x="29.058" y="3.8409999999999997" class="d">trt</text><text x="3.006" y="6.012" class="d">&lt;unit(2)&gt;</text><text x="13.026" y="6.012" class="d">&lt;unit(12)&gt;</text><text x="24.048" y="6.012" class="d">&lt;trt(4)&gt;</text><text x="1.002" y="8.183" class="d">1</text><text x="10.02" y="8.183" class="d">B1</text><text x="17.034" y="8.183" class="d">unit1</text><text x="31.061999999999998" y="8.183" class="d">B</text><text x="1.002" y="10.354" class="d">2</text><text x="10.02" y="10.354" class="d">B1</text><text x="17.034" y="10.354" class="d">unit2</text><text x="31.061999999999998" y="10.354" class="d">D</text><text x="1.002" y="12.525" class="d">3</text><text x="10.02" y="12.525" class="d">B1</text><text x="17.034" y="12.525" class="d">unit3</text><text x="31.061999999999998" y="12.525" class="d">A</text><text x="1.002" y="14.696" class="d">4</text><text x="10.02" y="14.696" class="d">B1</text><text x="17.034" y="14.696" class="d">unit4</text><text x="31.061999999999998" y="14.696" class="d">C</text><text x="1.002" y="16.866999999999997" class="d">5</text><text x="10.02" y="16.866999999999997" class="d">B1</text><text x="17.034" y="16.866999999999997" class="d">unit5</text><text x="31.061999999999998" y="16.866999999999997" class="d">A</text><text x="1.002" y="19.037999999999997" class="d">6</text><text x="10.02" y="19.037999999999997" class="d">B1</text><text x="17.034" y="19.037999999999997" class="d">unit6</text><text x="31.061999999999998" y="19.037999999999997" class="d">D</text><text x="1.002" y="21.209000000000003" class="d">7</text><text x="10.02" y="21.209000000000003" class="d">B2</text><text x="17.034" y="21.209000000000003" class="d">unit7</text><text x="31.061999999999998" y="21.209000000000003" class="d">D</text><text x="1.002" y="23.380000000000003" class="d">8</text><text x="10.02" y="23.380000000000003" class="d">B2</text><text x="17.034" y="23.380000000000003" class="d">unit8</text><text x="31.061999999999998" y="23.380000000000003" class="d">B</text><text x="1.002" y="25.550999999999995" class="d">9</text><text x="10.02" y="25.550999999999995" class="d">B2</text><text x="17.034" y="25.550999999999995" class="d">unit9</text><text x="31.061999999999998" y="25.550999999999995" class="d">A</text><text x="0" y="27.722" class="d">10</text><text x="10.02" y="27.722" class="d">B2</text><text x="17.034" y="27.722" class="d">unit10</text><text x="31.061999999999998" y="27.722" class="d">D</text><text x="0" y="29.893" class="d">11</text><text x="10.02" y="29.893" class="d">B2</text><text x="17.034" y="29.893" class="d">unit11</text><text x="31.061999999999998" y="29.893" class="d">C</text><text x="0" y="32.064" class="d">12</text><text x="10.02" y="32.064" class="d">B2</text><text x="17.034" y="32.064" class="d">unit12</text><text x="31.061999999999998" y="32.064" class="d">B</text></svg></svg></g></svg></svg>